<svg width="16" height="16" viewBox="0 0 12 12" xmlns="http://www.w3.org/2000/svg"><path d="m9.369 8.114-.421-.28h-3.65l-.421.28Zm-.562-.561v-.14H5.438v.14ZM5.371 2.97q.168.09.348.09.18 0 .348-.09.13-.073.213-.191-.084-.118-.213-.191-.168-.09-.348-.09-.18 0-.348.09-.13.073-.214.19.085.119.214.192zm-2.791.904q.168-.045.326-.135.157-.09.28-.213.073-.073.073-.118 0-.017-.01-.028-.018-.029-.074-.029-.033 0-.084.012-.168.045-.326.134-.157.09-.28.214-.096.095-.135.19h.028q.09 0 .202-.027zm5.228-2.387q.208-.106.455-.18.522-.174 1.078-.213-.04.556-.208 1.084-.079.241-.197.455.152.488.152 1.201v3.718l.842.561v.842H4.315v-.842l.842-.561V5.537q-.05-.05-.106-.09h.353q1.37 0 2.056-.556.118-.095.219-.208l.073-.516q-.146.387-.483.657-.596.483-1.865.483H4.315q-.331 0-.651.044.28-.185.522-.466l-.05-.073Q3.55 5.206 3 5.284q-.146.023-.292.023-.253 0-.494-.068-.146-.415-.146-1.617 0-.573.286-.842.292-.275.831-.416.545-.146 1.13-.146.589-.112.993-.292t.898-.354q.343-.196.803-.196.438 0 .798.112zM9.2 1.236q-.454.033-.881.174-.152.045-.281.14-.404.343-.556.719l.163.14q.034-.078.067-.14.242-.433.77-.685.27-.124.488-.169-.04.287-.241.69-.253.5-.685.742l-.14.062.14.163q.606-.23.853-.624.079-.151.135-.325.135-.433.168-.887Z" style="font-size:11.5px;line-height:0;font-family:Quivira;-inkscape-font-specification:Quivira;stroke-width:.15;stroke-linecap:square;stroke-linejoin:bevel;paint-order:markers stroke fill"/></svg>