<svg xmlns="http://www.w3.org/2000/svg" viewBox="0 0 512 512">
<path d="M213.33333,320V234.66667H320v43.4021a20.59789,20.59789,0,0,0,20.59789,20.5979L341.33333,320Z" style="fill:#d0d0d0"/>
<path d="M213.33333,234.66667,234.66667,256v21.33333L256,298.66667h21.33333l21.33334-21.33334V256L320,234.66667V224a53.33328,53.33328,0,0,0-53.33328-53.33328h-.00011A53.33328,53.33328,0,0,0,213.33333,224Z" style="fill:#e2e2e2"/>
<polygon points="277.333 298.667 298.667 277.333 298.667 256 277.333 256 277.333 298.667" style="fill:#cacaca"/>
<path d="M277.33333,171.74219v41.59114h21.33334V256L320,234.66667V224A53.34344,53.34344,0,0,0,277.33333,171.74219Z" style="fill:#c9c9c9"/>
<polygon points="448 490.667 469.333 426.667 447.204 405.333 405.333 405.333 384 320 213.333 320 213.333 277.333 170.667 277.333 149.333 234.667 128 128 85.333 128 85.333 256 85.333 405.333 64 448 106.667 490.667 448 490.667" style="fill:#e2e2e2"/>
<rect x="234.66667" y="320" width="64" height="21.33333" style="fill:#dcdcdc"/>
<polygon points="170.667 405.333 170.667 277.333 149.333 234.667 128 128 93.091 128 128 320 128 405.333 170.667 405.333" style="fill:#c8c8c8"/>
<polygon points="128 384 106.667 384 106.667 309.333 85.396 118.51 106.604 116.156 127.938 308.156 128 384" style="fill:#ececec"/>
<polygon points="192 298.667 157.479 298.667 128.698 240.25 110.521 149.333 96 149.333 96 128 128 128 149.333 234.667 170.667 277.333 192 277.333 192 298.667" style="fill:#d0d0d0"/>
<polygon points="206.81 490.667 229.001 490.667 255.594 397.594 256 320 234.667 320 234.667 393.177 206.81 490.667" style="fill:#dcdcdc"/>
<rect x="85.33333" y="42.66667" width="21.33333" height="128" style="fill:#f1f1f1"/>
<rect x="64" y="42.66667" width="64" height="42.66667" style="fill:#c8c8c8"/>
<rect x="42.66667" y="21.33333" width="106.66667" height="42.66667" style="fill:#e0e0e0"/>
<rect x="128" y="21.33333" width="21.33333" height="42.66667" style="fill:#d2d2d2"/>
<rect x="42.66667" y="21.33333" width="106.66667" height="21.33333" style="fill:#f0f0f0"/>
<rect x="42.66667" y="21.33333" width="21.33333" height="21.33333" style="fill:#fafafa"/>
<rect x="64" y="85.33333" width="42.66667" height="21.33333" style="fill:#f0f0f0"/>
<rect x="64" y="106.66667" width="42.66667" height="21.33333" style="fill:#ececec"/>
<rect x="64" y="128" width="21.33333" height="21.33333" style="fill:#f0f0f0"/>
<rect x="42.66667" y="64" width="21.33333" height="21.33333" style="fill:#dcdcdc"/>
<rect x="106.66667" y="85.33333" width="21.33333" height="42.66667" style="fill:#d1d1d1"/>
<polygon points="213.333 490.667 277.333 426.667 320 320 384 320 405.333 405.333 447.204 405.333 469.333 426.667 448 490.667 213.333 490.667" style="fill:#ececec"/>
<polygon points="372.324 490.667 405.333 405.333 447.204 405.333 469.333 426.667 448 490.667 372.324 490.667" style="fill:#f1f1f1"/>
<polygon points="452.365 410.309 425.122 490.667 448 490.667 469.333 426.667 452.365 410.309" style="fill:#f5f5f5"/>
<rect x="256" y="128" width="21.33333" height="64" style="fill:#c8c8c8"/>
<rect x="224" y="136.57437" width="21.33333" height="64" transform="translate(-52.84782 139.91802) rotate(-30)" style="fill:#c8c8c8"/>
<rect x="200.57437" y="160" width="21.33333" height="64" transform="translate(-60.65636 278.94011) rotate(-60)" style="fill:#c8c8c8"/>
<rect x="202.66667" y="202.66667" width="21.33333" height="42.66667" transform="translate(-10.66667 437.33333) rotate(-90)" style="fill:#c8c8c8"/>
<rect x="309.33333" y="202.66667" width="21.33333" height="42.66667" transform="translate(96 544) rotate(-90)" style="fill:#c8c8c8"/>
<rect x="311.42563" y="160" width="21.33333" height="64" transform="translate(316.86156 566.94011) rotate(-120)" style="fill:#c8c8c8"/>
<rect x="288" y="136.57437" width="21.33333" height="64" transform="translate(473.0324 463.8974) rotate(-150)" style="fill:#c8c8c8"/>
<path d="M298.66667,224H277.33333A10.66667,10.66667,0,1,0,256,224H234.66667a32,32,0,0,1,64,0Z" style="fill:#f0f0f0"/>
<polygon points="168.333 469.333 112.917 469.333 88.458 444.875 103.542 429.792 121.75 448 151.667 448 170.667 372.021 170.667 277.333 192 277.333 191.677 375.917 168.333 469.333" style="fill:#d0d0d0"/>
<polygon points="207.668 490.667 234.26 397.594 234.522 320 213.333 320 213.333 393.177 185.477 490.667 207.668 490.667" style="fill:#c8c8c8"/>
<polygon points="213.333 490.667 275.781 428.219 319.949 320 297.025 320 259.146 414.688 183.167 490.667 213.333 490.667" style="fill:#d0d0d0"/>
<polygon points="85.333 368.917 85.333 399.083 112.917 426.667 170.667 426.667 170.667 362.667 149.333 362.667 149.333 405.333 121.75 405.333 85.333 368.917" style="fill:#d0d0d0"/>
<rect x="192" y="277.33333" width="21.33333" height="64" style="fill:#f0f0f0"/>
<rect x="234.66667" y="320" width="21.33333" height="21.33333" style="fill:#f0f0f0"/>
<polygon points="313.315 490.667 361.802 377.531 342.198 369.135 290.113 490.667 313.315 490.667" style="fill:#c8c8c8"/>
<polygon points="334.648 490.667 383.135 377.531 363.531 369.135 311.447 490.667 334.648 490.667" style="fill:#f1f1f1"/>
<rect x="362.66667" y="320" width="21.33333" height="21.33333" style="fill:#f1f1f1"/>
</svg>
