<svg version="1.1" id="Layer_1" xmlns="http://www.w3.org/2000/svg" xmlns:xlink="http://www.w3.org/1999/xlink" x="0px" y="0px"
            viewBox="0 0 180 180" style="enable-background:new 0 0 180 180;" xml:space="preserve"><defs> <style> .cls-1 { fill:rgb(255, 255, 255); } .cls-2 { opacity: 0.2; } .cls-3 { opacity: 0.15; } .cls-4 { fill:rgb(255, 255, 255); } .cls-5 { font-family: Montserrat-Medium, Montserrat; font-size: 12px; } .cls-6 { fill:rgb(0, 0, 0); } </style> </defs> <text class="cls-5" transform="translate(0 -4.13)"> <tspan x="0" y="0">Wildebeest</tspan> </text> <g><path class="cls-4" d="M54.2,142.02s1.52-6.52,20.62-19.76c19.09-13.24,17.23-26.43,17.23-26.43,0,0-4.84,6.87-13.79,9.75-10.13,3.26-18.26,10.3-21.63,12.68-6.75,4.77-14.32-3.48-14.32-3.48-6.97-1.55-11.61-9.03-9.55-13.93,2.06-4.9,11.09-15.74,15.48-34.83,4.39-19.09,19.87-29.15,19.87-29.15,0,0,9.8-8.34,28.21-4.73,18.4,3.61,35.16,22.75,40.42,34.06,14.79,31.82-.52,60.63-9.32,75.09l-73.21,.75Z"/> <g><path class="cls-4" d="M43.36,157.54v3.46h97.37v-3.46c.03-10.37,.05-19.41-13.32-22.81,0,0-47.39-4.71-70.73,0h0c-13.37,3.4-13.35,12.43-13.32,22.81Z"/><path class="cls-1" d="M126.53,134.68c-9.2-1.86-22.23-2.21-34.49-1.98-12.26-.24-25.29,.12-34.49,1.98-9,2.29-11.78,7.2-12.63,13.35,0,0,7.64-7.37,47.11-7.37s47.11,7.37,47.11,7.37c-.85-6.15-3.62-11.06-12.63-13.35Z"/><path class="cls-6" d="M140.73,163H43.36c-1.1,0-2-.9-2-2v-3.45c-.03-10.31-.06-20.97,14.83-24.75,23.46-4.74,69.47-.24,71.42-.05,.1,0,.2,.03,.29,.05,14.89,3.78,14.86,14.44,14.83,24.75v3.45c0,1.1-.9,2-2,2Zm-95.37-4h93.37v-1.46c.03-10.32,.05-17.79-11.67-20.83-2.95-.28-47.85-4.49-69.99-.02-11.76,2.99-11.75,10.48-11.72,20.84h0v1.46Z"/></g> <g class="cls-3"><path d="M127.41,141.27c8.81-14.46,24.12-43.27,9.32-75.09-2.01-4.33-5.72-9.81-10.56-15.13h0s28.1,44.67-19.89,88.12c-.87,.79-1.68,1.56-2.45,2.34l23.57-.24Z"/></g> <g class="cls-3"><path d="M92.04,95.82s1.27,9.04-9.11,19.66h0c15.68-8.58,16.65-24.79,14.24-24.8s-5.13,5.14-5.13,5.14Z"/></g> <g class="cls-2"><path class="cls-1" d="M73.56,33.8c-3.6,1.48-5.45,3.06-5.45,3.06,0,0-15.48,10.06-19.87,29.15-2.3,10-5.87,17.73-9.05,23.54h0s8.79-6.64,11.76-18.38c2.97-11.74,8.33-27.14,22.61-37.37Z"/></g> <g class="cls-3"><path d="M42.31,114.78s-.21-.08,.42,.71l3.35-2.07,7.51-6.38,1.68-6.18-1.6-5.54-3.29-3.02-4.21-1.6-4.75,.07-3.23,.58c-1.89,3.32-4.57,8.11-5.64,10.07,.02-.02-.79,5.4,4.72,10.14,1.5,1.29,4.28,3.06,5.03,3.22Z"/></g><path class="cls-1" d="M76.06,121.83c.56-.55,1-1.03,1.34-1.46-.82,.63-1.68,1.26-2.59,1.89-19.09,13.24-20.62,19.76-20.62,19.76l8.43-.09,2.06-1.84s1.95-9.07,11.37-18.26Z"/><path class="cls-6" d="M54.2,144.02c-.61,0-1.18-.28-1.56-.75-.38-.48-.53-1.11-.39-1.71,.17-.74,2.25-7.65,21.42-20.95,10.53-7.31,14.36-14.43,15.71-19.1-2.48,2.13-6,4.51-10.52,5.97-8.13,2.62-14.93,7.77-18.99,10.85-.83,.63-1.53,1.16-2.1,1.56-6.19,4.38-13.26-.03-16.52-3.31-4.07-1.09-7.62-3.96-9.59-7.78-1.55-3-1.82-6.18-.75-8.73,.59-1.41,1.64-3.15,2.96-5.35,3.68-6.12,9.24-15.36,12.41-29.15,4.38-19.06,19.14-29.33,20.63-30.32,1.21-.98,11.46-8.68,29.78-5.08,19.14,3.76,36.29,23.21,41.85,35.18,16.21,34.88-3.09,66.56-9.43,76.97-.36,.59-1,.95-1.69,.96l-73.21,.75h-.02Zm37.85-50.19c.16,0,.32,.02,.47,.06,.79,.19,1.39,.85,1.51,1.66,.08,.59,1.8,14.57-18.07,28.36-11.27,7.82-16.22,13.2-18.33,16.08l68.65-.7c6.57-10.83,23.5-40.3,8.64-72.25-5.42-11.66-21.99-29.6-38.99-32.94-17.13-3.36-26.16,3.98-26.53,4.3-.06,.05-.13,.1-.2,.15-.15,.1-14.86,9.89-19.01,27.92-3.31,14.42-9.3,24.37-12.88,30.32-1.24,2.06-2.22,3.69-2.7,4.84-.61,1.45-.38,3.39,.62,5.34,1.51,2.92,4.39,5.17,7.52,5.86,.4,.09,.76,.3,1.04,.6,.06,.07,6.47,6.89,11.69,3.2,.54-.38,1.21-.89,1.99-1.49,4.26-3.23,11.4-8.64,20.18-11.47,8.16-2.63,12.73-8.94,12.77-9,.38-.54,.99-.84,1.63-.84Z"/><path class="cls-4" d="M108.2,19.76c.19,2.49,4.76,15.68-8.42,12.63-13.19-3.04-22.78-1.72-26.99,4.02-4.21,5.74-1.15,10.91,3.06,11.87,4.21,.96,13.21-3.25,21.44-2.68,8.23,.57,14.12,1.59,20.29-3.06,13.87-10.46-9.57-25.27-9.38-22.78Z"/><path class="cls-3" d="M97.29,45.6c8.23,.57,14.12,1.59,20.29-3.06,6.61-4.99,4.74-10.96,.99-15.58,1.99,8.36-2.64,13.93-10.18,15.31-7.54,1.38-17.01,3.59-17.01,3.59h0c1.96-.27,3.95-.4,5.9-.27Z"/><path class="cls-6" d="M77.28,50.42c-.67,0-1.3-.06-1.88-.19-2.81-.64-5.09-2.63-6.09-5.32-1.14-3.05-.48-6.49,1.86-9.69,4.71-6.43,14.76-8.08,29.05-4.79,2,.46,4.63,.76,5.87-.44,1.73-1.67,.83-6.17,.4-8.33-.14-.73-.26-1.3-.29-1.75h0c-.08-1.09,.59-2.05,1.65-2.34,2.98-.81,11.7,5.71,14.74,11.92,2.72,5.54,1.37,10.74-3.81,14.65-6.16,4.65-12.24,4.18-19.28,3.64-.76-.06-1.55-.12-2.36-.18-4.07-.29-8.46,.71-12.34,1.6-2.85,.65-5.4,1.23-7.53,1.23Zm10.09-17.62c-6.18,0-10.64,1.62-12.97,4.8-1.52,2.07-1.99,4.17-1.34,5.92,.52,1.4,1.76,2.48,3.23,2.82,1.54,.35,4.5-.33,7.63-1.04,4.15-.94,8.84-2.01,13.5-1.69,.82,.06,1.61,.12,2.38,.18,6.99,.54,11.61,.9,16.56-2.84,2.97-2.24,4.08-4.73,3.4-7.6-1.07-4.52-5.93-8.69-9.02-10.67,.54,3.17,.85,7.56-1.88,10.21-2.03,1.97-5.25,2.46-9.55,1.47-4.47-1.03-8.49-1.54-11.96-1.54Z"/><path class="cls-6" d="M42.3,116.77c-.91,0-1.74-.63-1.95-1.56-.24-1.08,.43-2.15,1.5-2.39,.14-.03,9.76-2.36,11.21-10.03,1.34-7.09-4.36-9.21-5.02-9.42,0,0-5.22-1.53-9.23-.03-1.03,.39-2.19-.14-2.57-1.17-.39-1.03,.14-2.19,1.17-2.57,5.29-1.98,11.56-.12,11.83-.04,3.41,1.09,9.37,5.4,7.75,13.98-1.94,10.29-13.75,13.08-14.25,13.19-.15,.03-.3,.05-.44,.05Z"/> <g class="cls-3"><path d="M87.59,62.09s1.27,.94,3.37,1.98c4.26,2.1,11.95,4.62,19.47,.55,11.22-6.08,10.17-16.26,10.17-16.26l-4.88,6.31-4.42,4.56-5.3,3.96-5.76,1.44h-4.51l-8.12-2.52Z"/></g><path class="cls-6" d="M65.55,59.22c5.59-.19,10.51,7.33,10.51,7.33-6.39-1.93-6.54,3.64-12.75,2.08-5.18-1.3-3.24-9.22,2.24-9.41Z"/><path class="cls-6" d="M40.93,105.12c-.87,0-1.67-.58-1.92-1.46-.48-1.71-.55-3.09-.38-4.2,.13-.9,.7-1.49,1.4-1.76,1.48-.57,2.91,.85,2.64,2.41-.1,.57-.11,1.35,.16,2.33,.28,1.04-.19,2.2-1.2,2.56-.23,.08-.46,.12-.68,.12Z"/> <g><path class="cls-4" d="M43.36,157.54v3.46h97.37v-3.46c.03-10.37,.05-19.41-13.32-22.81,0,0-47.39-4.71-70.73,0h0c-13.37,3.4-13.35,12.43-13.32,22.81Z"/> <g class="cls-2"><path class="cls-1" d="M126.53,134.68c-9.2-1.86-22.23-2.21-34.49-1.98-12.26-.24-25.29,.12-34.49,1.98-9,2.29-11.78,7.2-12.63,13.35,0,0,7.64-7.37,47.11-7.37s47.11,7.37,47.11,7.37c-.85-6.15-3.62-11.06-12.63-13.35Z"/></g><path class="cls-6" d="M140.73,163H43.36c-1.1,0-2-.9-2-2v-3.45c-.03-10.31-.06-20.97,14.83-24.75,23.46-4.74,69.47-.24,71.42-.05,.1,0,.2,.03,.29,.05,14.89,3.78,14.86,14.44,14.83,24.75v3.45c0,1.1-.9,2-2,2Zm-95.37-4h93.37v-1.46c.03-10.32,.05-17.79-11.67-20.83-2.95-.28-47.85-4.49-69.99-.02-11.76,2.99-11.75,10.48-11.72,20.84h0v1.46Z"/></g><path class="cls-6" d="M97.36,66.61c-3.87,0-7.76-1.09-11.63-3.25-.96-.54-1.31-1.76-.77-2.72,.54-.96,1.76-1.31,2.72-.77,4.84,2.71,9.68,3.41,14.37,2.07,6.74-1.92,11.86-7.59,14.59-11.26-1.08-.03-2.35-.13-3.81-.36-.93-.15-2.06-.46-3.36-.83-4.25-1.2-10.68-3.01-14.57,.36-5.8,5.02-7.95,6.01-8.47,6.2-1.04,.37-2.18-.18-2.55-1.22-.36-1.02,.16-2.14,1.16-2.53,.16-.07,2.02-.95,7.23-5.47,5.52-4.79,13.51-2.54,18.28-1.19,1.18,.33,2.2,.62,2.89,.73,4.28,.67,6.57,.06,6.59,.05,.78-.21,1.61,.05,2.11,.69,.5,.63,.58,1.5,.19,2.2-.29,.53-7.34,13.09-19.17,16.47-1.93,.55-3.87,.83-5.81,.83Z"/></g></svg>