<svg version="1.1" id="Layer_1" xmlns="http://www.w3.org/2000/svg" xmlns:xlink="http://www.w3.org/1999/xlink" x="0px" y="0px"
            viewBox="0 0 180 180" style="enable-background:new 0 0 180 180;" xml:space="preserve"><defs> <style> .cls-1 { fill: #fff; } .cls-2 { opacity: 0.2; } .cls-3 { opacity: 0.15; } .cls-4 { fill: #f8f8f8; } .cls-5 { fill: #1a1a1a; } </style> </defs><path class="cls-4" d="M66.78,68.04v-17.81l-17.17,6.83c-1.88,.75-1.88,3.41,0,4.16l17.17,6.83Z"/> <g class="cls-2"><polygon class="cls-1" points="49.61 61.21 64.15 56.11 65.54 50.23 49.61 57.05 48.49 58.01 48.49 60.25 49.61 61.21"/></g><path class="cls-5" d="M66.78,70.04c-.25,0-.5-.05-.74-.14l-17.17-6.83c-1.62-.65-2.67-2.19-2.67-3.94s1.05-3.29,2.67-3.94l17.17-6.83c.61-.24,1.31-.17,1.86,.2,.55,.37,.88,.99,.88,1.65v17.81c0,.66-.33,1.28-.88,1.65-.34,.23-.73,.35-1.12,.35Zm-2-16.86l-14.43,5.74c-.05,.02-.15,.06-.15,.22s.1,.2,.15,.22l14.43,5.74v-11.92Z"/><path class="cls-4" d="M98.91,35.91h-17.81l6.83-17.17c.75-1.88,3.41-1.88,4.16,0l6.83,17.17Z"/> <g class="cls-3"><path d="M82.21,33.1h0l-.23,2.81h16.93l-5.19-13.05c-.04,.14-.07,.29-.11,.44-1.56,7.6-11.4,9.8-11.4,9.8Z"/></g><path class="cls-5" d="M98.91,37.91h-17.81c-.66,0-1.28-.33-1.66-.88-.37-.55-.45-1.25-.2-1.86l6.83-17.17c.65-1.62,2.19-2.67,3.94-2.67s3.29,1.05,3.94,2.67l6.83,17.17c.25,.62,.17,1.31-.2,1.86-.37,.55-.99,.88-1.66,.88Zm-14.86-4h11.92l-5.74-14.43c-.02-.05-.06-.15-.22-.15s-.2,.1-.22,.15l-5.74,14.43Z"/><path class="cls-4" d="M113.22,68.04v-17.81l17.17,6.83c1.88,.75,1.88,3.41,0,4.16l-17.17,6.83Z"/> <g class="cls-3"><path d="M113.22,68.04v-17.81l17.17,6.83c1.88,.75,1.88,3.41,0,4.16l-17.17,6.83Z"/></g><path class="cls-5" d="M113.22,70.04c-.39,0-.79-.12-1.12-.35-.55-.37-.88-.99-.88-1.65v-17.81c0-.66,.33-1.28,.88-1.65s1.25-.45,1.86-.2l17.17,6.83c1.62,.65,2.67,2.19,2.67,3.94s-1.05,3.29-2.67,3.94l-17.17,6.83c-.24,.09-.49,.14-.74,.14Zm2-16.86v11.92l14.43-5.74c.05-.02,.15-.06,.15-.22s-.1-.2-.15-.22l-14.43-5.74Z"/><circle class="cls-4" cx="90" cy="59.13" r="26.03"/> <g class="cls-2"><path class="cls-1" d="M94.8,33.55c-1.56-.29-3.16-.45-4.8-.45-14.38,0-26.03,11.65-26.03,26.03,0,1.64,.16,3.25,.45,4.8,2.46-15.6,14.78-27.92,30.38-30.38Z"/></g> <g class="cls-3"><path d="M112.98,46.9c-.85,18.7-16.28,33.59-35.18,33.59-.95,0-1.89-.04-2.81-.11,4.24,3.01,9.43,4.78,15.02,4.78,14.38,0,26.03-11.65,26.03-26.03,0-4.42-1.11-8.58-3.05-12.23Z"/></g><path class="cls-5" d="M90,87.16c-15.46,0-28.03-12.57-28.03-28.03s12.57-28.03,28.03-28.03,28.03,12.57,28.03,28.03-12.57,28.03-28.03,28.03Zm0-52.06c-13.25,0-24.03,10.78-24.03,24.03s10.78,24.03,24.03,24.03,24.03-10.78,24.03-24.03-10.78-24.03-24.03-24.03Z"/><path class="cls-4" d="M110.31,101.2l-1.12-.35h-38.38l-1.12,.35c-9.66,3.02-17.45,10.23-21.2,19.63h83.02c-3.75-9.4-11.53-16.61-21.2-19.63Z"/><path class="cls-4" d="M48.49,120.84c3.75,9.4,11.53,16.61,21.2,19.63l1.12,.35h38.38l1.12-.35c9.66-3.02,17.45-10.23,21.2-19.63H48.49Z"/> <g class="cls-3"><path d="M97.41,120.83c1.4-1.76,2.16-3.66,2.16-5.63,0-6.05-7.13-11.36-17.86-14.35h27.48l1.12,.35c9.66,3.02,17.45,10.23,21.2,19.63h-34.09Z"/></g> <g class="cls-3"><path d="M131.51,120.83c-3.75,9.4-11.54,16.62-21.2,19.63l-1.12,.35h-38.38l-1.12-.35c-5.36-1.67-10.14-4.64-13.97-8.55,1.91,.13,3.87,.2,5.87,.2,16.55,0,30.62-4.71,35.83-11.29h34.09Z"/></g><path class="cls-5" d="M131.51,122.84H48.49c-.66,0-1.28-.33-1.66-.88-.37-.55-.45-1.25-.2-1.86,3.99-10.01,12.17-17.59,22.46-20.8l1.12-.35c.19-.06,.39-.09,.6-.09h38.38c.2,0,.4,.03,.6,.09l1.12,.35c10.28,3.21,18.47,10.79,22.46,20.8,.25,.62,.17,1.31-.2,1.86-.37,.55-.99,.88-1.66,.88Zm-79.91-4h76.81c-3.85-7.52-10.53-13.17-18.69-15.72h0l-.83-.26h-37.77l-.83,.26c-8.17,2.55-14.84,8.2-18.69,15.72Z"/><path class="cls-5" d="M109.19,142.82h-38.38c-.2,0-.4-.03-.6-.09l-1.12-.35c-10.28-3.21-18.47-10.79-22.46-20.8-.25-.62-.17-1.31,.2-1.86,.37-.55,.99-.88,1.66-.88h83.02c.66,0,1.28,.33,1.66,.88,.37,.55,.45,1.25,.2,1.86-3.99,10.01-12.17,17.59-22.46,20.8l-1.12,.35c-.19,.06-.39,.09-.6,.09Zm-38.08-4h37.77l.83-.26c8.17-2.55,14.84-8.2,18.69-15.72H51.59c3.85,7.52,10.53,13.17,18.69,15.72l.83,.26Z"/> <g><path class="cls-4" d="M41.4,157.17v3.45h97.2v-3.45c.03-10.36,.05-19.38-13.3-22.77,0,0-47.31-4.71-70.61,0h0c-13.35,3.39-13.33,12.41-13.3,22.77Z"/> <g class="cls-2"><path class="cls-1" d="M124.43,134.35c-9.18-1.85-22.19-2.21-34.43-1.98-12.24-.23-25.24,.12-34.43,1.98-8.99,2.28-11.76,7.19-12.6,13.33,0,0,7.63-7.36,47.03-7.36s47.02,7.35,47.03,7.36c-.85-6.14-3.61-11.04-12.6-13.33Z"/></g><path class="cls-5" d="M138.6,162.63H41.4c-1.1,0-2-.9-2-2v-3.45c-.03-10.29-.06-20.94,14.8-24.71,23.42-4.73,69.35-.25,71.3-.05,.1,0,.2,.03,.29,.05,14.86,3.77,14.83,14.42,14.81,24.71v3.45c0,1.1-.9,2-2,2Zm-95.2-4h93.2v-1.46c.03-10.3,.05-17.76-11.64-20.79-2.95-.28-47.77-4.48-69.86-.02-11.74,2.98-11.72,10.46-11.69,20.8h0v1.46Z"/></g><polygon class="cls-4" points="105.33 80.49 74.67 80.49 70.81 100.85 109.19 100.85 105.33 80.49"/> <g class="cls-3"><path d="M81.71,80.49s13.32,.38,13.32,20.36h14.15l-3.86-20.36h-23.61Z"/></g><path class="cls-5" d="M109.19,102.85h-38.38c-.6,0-1.16-.27-1.54-.72-.38-.46-.54-1.06-.42-1.65l3.86-20.36c.18-.94,1-1.63,1.96-1.63h30.66c.96,0,1.79,.68,1.96,1.63l3.86,20.36c.11,.58-.04,1.19-.42,1.65-.38,.46-.94,.72-1.54,.72Zm-35.97-4h33.55l-3.1-16.36h-27.34l-3.1,16.36Z"/> <g><circle class="cls-4" cx="90" cy="59.13" r="8.91"/><path class="cls-5" d="M90,70.04c-6.01,0-10.91-4.89-10.91-10.91s4.89-10.91,10.91-10.91,10.91,4.89,10.91,10.91-4.89,10.91-10.91,10.91Zm0-17.81c-3.81,0-6.91,3.1-6.91,6.91s3.1,6.91,6.91,6.91,6.91-3.1,6.91-6.91-3.1-6.91-6.91-6.91Z"/></g></svg>