<svg width="16" height="16" viewBox="0 0 12 12" xmlns="http://www.w3.org/2000/svg"><path d="M9.65 8.676v-.281H4.596v.28Zm-.281-.562-.421-.28h-3.65l-.421.28ZM5.37 2.971q-.13-.073-.214-.191.085-.118.214-.191.168-.09.348-.09.18 0 .348.09.13.073.213.19-.084.119-.213.192-.168.09-.348.09-.18 0-.348-.09zm3.51-.5q.207.528.207 1.364v3.718l.842.561v.842H4.315v-.842l.842-.561V5.677q-.41-.37-.842-.37-.584 0-1.123.134-.28.068-.488.068-.203 0-.343-.062-.292-.13-.292-1.825 0-.573.286-.842.292-.275.831-.416.545-.146 1.13-.146.589-.112.993-.292t.898-.354q.343-.196.803-.196.573 0 1.006.19.01-.005.016-.01l.006-.006q.13-.095.28-.14.428-.14.882-.174-.033.454-.168.887-.056.174-.135.325-.005.006-.005.012l-.012.01zm-.08-.517q.13-.292.17-.522-.225.028-.49.152-.117.056-.218.118-.169.118-.264.202-.174.163-.287.365-.033.062-.067.14l-.163-.14q.096-.23.286-.455-.46-.157-.87-.157-.427 0-.741.168-.455.152-.826.309-.37.157-.915.253-.539 0-1.039.129-.494.123-.763.36-.264.235-.264.735v.286q.045-.095.135-.185.123-.124.28-.214.158-.09.326-.134.05-.012.084-.012.056 0 .073.029.011.01.011.028 0 .045-.073.118-.123.123-.28.213-.158.09-.326.135-.112.028-.202.028H2.35q.028 1.19.27 1.291.128.056.314.056.19 0 .449-.061.011 0 .028-.006.36-.123.724-.37l.05.072q-.095.113-.201.208.213-.017.432-.017.337 0 .663.23h.325q1.27 0 1.865-.482.337-.27.483-.657l-.073.657q-.101.112-.22.207-.673.55-2.02.556v1.966h3.368V3.796q0-.567-.151-1.072-.236.207-.612.348l-.14-.163.14-.062q.432-.241.685-.741.01-.028.033-.073.017-.04.04-.079z" style="font-size:11.5px;line-height:0;font-family:Quivira;-inkscape-font-specification:Quivira;stroke-width:.15;stroke-linecap:square;stroke-linejoin:bevel;paint-order:markers stroke fill"/></svg>