<?xml version="1.0" encoding="UTF-8" standalone="no"?>
<!-- Created with Inkscape (http://www.inkscape.org/) -->

<svg
   xmlns:dc="http://purl.org/dc/elements/1.1/"
   xmlns:cc="http://creativecommons.org/ns#"
   xmlns:rdf="http://www.w3.org/1999/02/22-rdf-syntax-ns#"
   xmlns:svg="http://www.w3.org/2000/svg"
   xmlns="http://www.w3.org/2000/svg"
   xmlns:sodipodi="http://sodipodi.sourceforge.net/DTD/sodipodi-0.dtd"
   xmlns:inkscape="http://www.inkscape.org/namespaces/inkscape"
   version="1.1"
   id="svg10"
   width="45"
   height="45"
   viewBox="0 0 45 45"
   sodipodi:docname="RoyalKnightFinish Done.svg"
   inkscape:version="0.92.1 r15371">
  <metadata
     id="metadata16">
    <rdf:RDF>
      <cc:Work
         rdf:about="">
        <dc:format>image/svg+xml</dc:format>
        <dc:type
           rdf:resource="http://purl.org/dc/dcmitype/StillImage" />
        <dc:title></dc:title>
      </cc:Work>
    </rdf:RDF>
  </metadata>
  <defs
     id="defs14" />
  <sodipodi:namedview
     pagecolor="#ffffff"
     bordercolor="#666666"
     borderopacity="1"
     objecttolerance="10"
     gridtolerance="10"
     guidetolerance="10"
     inkscape:pageopacity="0"
     inkscape:pageshadow="2"
     inkscape:window-width="1920"
     inkscape:window-height="1017"
     id="namedview12"
     showgrid="false"
     inkscape:zoom="9.0203892"
     inkscape:cx="25.034443"
     inkscape:cy="21.247959"
     inkscape:window-x="1272"
     inkscape:window-y="-8"
     inkscape:window-maximized="1"
     inkscape:current-layer="svg10" />
  <g
     id="g20"
     transform="matrix(0.30405405,0,0,0.30405405,0,31.317568)">
    <path
       style="fill:#fcfcfc"
       d="m 0,-29 v -74 h 74 74 v 74 74 H 74 0 Z"
       id="path24"
       inkscape:connector-curvature="0" />
    <path
       style="fill:#0a0a0a"
       d="M 51.477319,43.9633 C 50.443922,42.29123 52.022315,34.79086 54.205342,31 55.313884,29.075 59.490965,23.45 63.487742,18.5 67.48452,13.55 71.517382,7.99688 72.449659,6.15974 74.114917,2.87819 73.966393,0 72.131795,0 70.763351,0 62.069184,6.70973 55.42808,12.8911 c -3.185631,2.96511 -7.32162,6.29357 -9.191086,7.39658 -3.227091,1.90403 -3.573693,1.92218 -6.851939,0.3589 C 37.485955,19.74096 35.084218,19 34.047861,19 30.593998,19 28.931968,17.78697 26.883063,13.77078 25.056318,10.19007 24.973464,9.26921 26.061898,4.64412 c 0.665818,-2.82927 3.167707,-9.358306 5.559753,-14.508977 2.442612,-5.259554 4.026789,-9.90885 3.613762,-10.605792 -0.404477,-0.682513 -3.194089,-3.232121 -6.199138,-5.665794 C 21.717529,-32.063612 18,-39.14071 18,-47.14631 c 0,-9.569209 2.883325,-14.838905 10.945781,-20.005009 5.55041,-3.556484 12.966654,-3.822783 21.648993,-0.777361 11.222881,3.936544 10.63294,4.111833 11.913633,-3.539905 0.494596,-2.955057 1.919126,-5.20384 5.577913,-8.80537 6.286151,-6.187777 6.465104,-9.425298 0.643328,-11.638733 -3.711534,-1.411123 -3.662809,-4.65068 0.08121,-5.399484 1.714698,-0.342939 3.266232,-1.561607 3.978562,-3.124998 1.470099,-3.22652 2.542943,-3.23072 4.647869,-0.0182 0.91702,1.399553 2.768774,2.963416 4.11501,3.475253 C 84.473329,-95.869542 84.976592,-92 82.2,-92 c -0.99,0 -2.34,0.54 -3,1.2 -2.335286,2.335286 -1.250542,5.949926 3.306662,11.018633 3.12407,3.474718 4.701426,6.230481 5.14151,8.982617 0.349167,2.183569 1.193667,4.184563 1.876667,4.446655 0.683,0.262092 4.06864,-0.451468 7.523645,-1.585687 11.649846,-3.824447 20.247896,-2.403007 28.038526,4.635358 5.39823,4.876975 6.91299,8.116853 6.91299,14.786008 0,7.90318 -3.27147,13.756702 -12.37833,22.14811 l -7.47385,6.886693 2.05704,5.990807 C 119.52975,2.01712 120.18023,5.9372 120.71625,25.75 L 121.23705,45 H 86.677543 C 63.900976,45 51.899585,44.64654 51.477319,43.9633 Z M 117.13383,28 c -0.61657,-19.36429 -4.99216,-38.736291 -10.26292,-45.436986 -4.12984,-5.250234 -9.962801,-6.530616 -36.916846,-8.103539 l -11.545937,-0.673771 -3.412743,2.857148 C 52.377877,-21.165771 50.558976,-20.5 47.189595,-20.5 h -4.393048 l -4.952085,8.192122 c -5.583661,9.236923 -6.69019,13.945968 -3.192679,13.587068 1.18348,-0.12144 2.696324,0.43533 3.361875,1.23727 1.651563,1.99001 0.428209,4.85747 -1.775809,4.16237 C 29.809265,4.6514 30,4.62785 30,7.44911 c 0,6.16635 4.740914,8.70463 8.5,4.55089 2.339611,-2.58524 4.89531,-2.54331 6.656516,0.10921 1.370008,2.06334 1.573794,1.96437 9.371972,-4.55141 16.181226,-13.520243 18.124346,-15.432341 20.522791,-20.195153 2.763298,-5.487332 4.002137,-6.709231 5.392553,-5.318815 0.614067,0.614067 0.302987,4.837428 -0.862403,11.708359 C 77.384181,6.70677 74.358261,13.18751 66.092932,22.64107 59.799816,29.83888 55.437934,37.28154 56.50284,39.0046 c 0.415539,0.67235 11.007972,0.93358 30.815177,0.75996 L 117.5,39.5 Z M 46.698712,-26.503168 c 6.464107,-1.919633 14.438974,-3.599613 20.801288,-4.381984 4.973811,-0.611628 5.001679,-0.635385 5.320559,-4.535832 0.534765,-6.541101 -2.21753,-11.751937 -10.224549,-19.357822 C 54.239648,-62.716533 49.070213,-65 39.45672,-65 c -4.823136,0 -6.79156,0.475545 -8.929498,2.157247 -12.486296,9.821722 -11.259615,24.182513 2.972778,34.802403 4.589537,3.424609 6.208237,3.61313 13.198712,1.537182 z m 68.658448,-1.844957 c 5.53517,-3.935355 10.06785,-9.770722 12.13042,-15.616675 1.29499,-3.670377 1.29761,-4.613561 0.0213,-7.668181 C 123.72628,-60.686027 117.22904,-65 107.37692,-65 c -8.310647,0 -13.004047,1.80652 -19.050542,7.332676 -7.47979,6.836106 -10.374799,12.094611 -10.625173,19.299602 -0.18909,5.441397 -0.0319,5.872711 2.61055,7.163044 1.546465,0.755154 5.596465,1.7685 9,2.251881 3.403535,0.483381 7.988245,1.538799 10.188245,2.345374 6.65174,2.438691 10.58624,2.006785 15.85716,-1.740702 z M 79.05662,-54.75 c 4.343237,-6.848093 5.451273,-11.181038 3.990859,-15.606137 C 81.654217,-74.577764 77.745667,-78 74.317392,-78 c -5.550137,0 -9.508363,8.889649 -7.407997,16.637377 C 68.228949,-56.495119 72.601099,-50 74.558075,-50 c 0.817285,0 2.841631,-2.1375 4.498545,-4.75 z"
       id="path22"
       inkscape:connector-curvature="0" />
  </g>
</svg>
